<?xml version="1.0" standalone="no"?>
<!DOCTYPE svg PUBLIC "-//W3C//DTD SVG 20010904//EN"
 "http://www.w3.org/TR/2001/REC-SVG-20010904/DTD/svg10.dtd">
<svg version="1.0" xmlns="http://www.w3.org/2000/svg"
 width="512.000000pt" height="512.000000pt" viewBox="0 0 512.000000 512.000000"
 preserveAspectRatio="xMidYMid meet">
<metadata>
Created by potrace 1.11, written by Peter Selinger 2001-2013
</metadata>
<g transform="translate(0.000000,512.000000) scale(0.100000,-0.100000)"
fill="#000000" stroke="none">
<path d="M2380 5110 c-526 -41 -1010 -230 -1420 -557 -110 -88 -308 -285 -394
-393 -297 -374 -479 -804 -542 -1280 -35 -263 -18 -607 42 -880 141 -632 534
-1205 1074 -1564 265 -177 560 -303 860 -370 362 -80 758 -80 1120 0 632 141
1205 534 1564 1074 224 336 358 696 412 1100 22 167 22 473 0 640 -125 941
-734 1720 -1615 2065 -332 129 -747 192 -1101 165z m2370 -1630 c0 -94 -2
-105 -34 -168 -114 -228 -312 -773 -429 -1182 -45 -156 -93 -354 -125 -510
l-17 -85 -194 -3 c-107 -1 -198 1 -202 5 -14 14 55 288 147 582 99 314 299
843 400 1060 24 52 44 95 44 97 0 2 -174 5 -387 6 l-388 3 -3 148 -3 147 596
0 595 0 0 -100z m-1435 -155 c74 -25 147 -63 160 -85 6 -9 -40 -192 -51 -209
-2 -2 -15 6 -31 17 -78 55 -184 92 -263 92 -169 -1 -237 -184 -109 -294 21
-18 85 -52 141 -76 259 -111 366 -234 375 -434 8 -155 -29 -269 -116 -356 -89
-89 -212 -127 -384 -117 -100 5 -171 23 -248 62 -54 28 -129 88 -129 104 0 20
52 194 61 205 4 5 29 -10 56 -34 59 -53 171 -107 244 -119 99 -16 181 12 225
79 51 76 45 168 -16 233 -40 44 -55 52 -240 141 -70 33 -136 73 -167 101 -205
182 -165 560 72 675 116 56 280 62 420 15z m-2220 1 c28 -9 74 -29 103 -46
l52 -30 0 -125 0 -124 -56 39 c-81 56 -142 75 -249 75 -76 0 -99 -4 -146 -26
-145 -68 -218 -227 -219 -477 0 -246 66 -402 201 -477 51 -28 61 -30 164 -30
125 0 177 15 251 71 24 19 46 34 49 34 3 0 5 -54 5 -120 l0 -120 -39 -25
c-166 -111 -465 -108 -642 5 -113 73 -212 221 -254 380 -22 84 -32 366 -16
469 27 171 107 333 209 421 55 47 144 93 222 115 73 20 293 15 365 -9z m585
-611 l0 -615 240 0 240 0 0 -110 0 -110 -380 0 -380 0 0 725 0 725 140 0 140
0 0 -615z m848 -242 l-3 -858 -24 -52 c-28 -63 -81 -114 -144 -138 -66 -25
-213 -18 -284 14 l-53 23 0 89 0 88 46 -24 c50 -27 102 -32 136 -14 48 26 48
22 48 904 l0 825 140 0 140 0 -2 -857z"/>
</g>
</svg>
